<?xml version="1.0" standalone="no"?>
<!DOCTYPE svg PUBLIC "-//W3C//DTD SVG 20010904//EN"
 "http://www.w3.org/TR/2001/REC-SVG-20010904/DTD/svg10.dtd">
<svg version="1.0" xmlns="http://www.w3.org/2000/svg"
 width="1280.000000pt" height="1280.000000pt" viewBox="0 0 1280.000000 1280.000000"
 preserveAspectRatio="xMidYMid meet">
<g transform="translate(0.000000,1280.000000) scale(0.100000,-0.100000)"
fill="#000" stroke="none">
<path d="M943 12755 c-86 -19 -223 -85 -312 -152 -115 -85 -386 -362 -454
-464 -178 -268 -184 -524 -16 -684 32 -31 84 -68 116 -83 53 -25 68 -27 168
-26 84 1 124 6 170 22 l60 21 35 -24 c70 -48 108 -58 201 -52 l86 5 92 -92 93
-93 -85 -122 c-353 -503 -537 -1074 -537 -1672 0 -822 363 -1628 974 -2162
717 -626 1692 -866 2595 -637 1047 264 1833 1045 2102 2087 139 539 113 1120
-72 1648 -271 774 -828 1376 -1576 1701 -131 57 -400 147 -522 174 -50 11
-145 29 -212 40 -67 11 -124 21 -125 23 -2 2 19 66 47 142 l50 139 -23 18
c-57 43 -121 53 -358 53 -237 0 -301 -10 -358 -53 l-23 -18 50 -138 c28 -77
48 -142 46 -146 -3 -4 -26 -10 -52 -13 -110 -13 -261 -38 -337 -56 -332 -79
-773 -287 -1043 -491 -37 -28 -71 -50 -77 -50 -6 0 -53 42 -105 94 l-93 93 11
39 c22 78 10 154 -34 219 l-26 37 25 72 c72 209 48 373 -73 494 -107 108 -243
143 -408 107z m218 -221 c15 -7 41 -31 56 -51 26 -34 28 -43 28 -127 0 -71 -5
-101 -21 -137 -20 -42 -26 -47 -65 -53 -80 -13 -132 -53 -327 -250 -160 -162
-191 -199 -205 -240 -9 -27 -17 -57 -17 -66 0 -21 -28 -34 -104 -50 -84 -17
-139 -6 -188 38 -71 64 -85 136 -49 250 40 129 81 184 295 398 159 160 216
209 271 240 126 70 250 88 326 48z m2507 -804 c125 -14 283 -44 397 -76 50
-14 101 -28 115 -31 42 -8 241 -88 339 -138 752 -377 1244 -1107 1322 -1960
67 -742 -268 -1551 -842 -2027 -368 -305 -840 -507 -1301 -557 -138 -15 -404
-14 -538 3 -771 97 -1439 541 -1818 1211 -140 248 -242 549 -289 855 -24 159
-24 500 1 659 108 701 478 1290 1046 1666 189 125 359 209 560 277 71 24 252
75 295 82 93 16 171 28 230 35 102 12 371 13 483 1z"/>
<path d="M3647 11476 c-24 -61 -114 -777 -217 -1706 -95 -869 -97 -890 -90
-895 4 -3 33 -7 64 -11 47 -6 56 -4 56 9 0 9 20 238 45 509 99 1096 143 1649
152 1921 6 174 4 209 -10 173z"/>
<path d="M2867 11343 c-12 -11 -8 -51 13 -125 11 -39 18 -74 15 -76 -2 -2 -37
-15 -77 -29 -98 -33 -261 -111 -347 -167 -65 -42 -91 -66 -58 -53 13 5 43 -30
39 -45 -1 -4 53 21 121 56 265 136 434 179 820 212 58 5 70 9 79 29 7 16 7 29
-2 45 -12 23 -14 23 -149 17 -119 -5 -238 -21 -321 -42 -24 -6 -26 -3 -44 67
-26 99 -35 118 -61 118 -12 0 -25 -3 -28 -7z"/>
<path d="M3902 11303 c-23 -59 -43 -144 -40 -170 2 -24 8 -28 33 -28 28 0 30
3 52 80 30 102 28 139 -8 143 -21 2 -28 -3 -37 -25z"/>
<path d="M1904 10966 c-47 -21 -104 -93 -104 -133 0 -53 19 -79 163 -220 134
-132 135 -133 181 -133 42 0 52 5 96 46 55 51 70 95 51 143 -16 37 -268 287
-304 300 -36 14 -45 13 -83 -3z"/>
<path d="M3205 10929 c-160 -21 -329 -75 -485 -155 -80 -41 -156 -92 -118 -78
19 6 56 -26 50 -44 -2 -6 36 8 85 32 181 90 363 139 576 156 95 8 125 14 135
27 15 20 15 29 2 54 -9 17 -21 19 -93 18 -45 -1 -113 -6 -152 -10z"/>
<path d="M4648 10742 c-147 -148 -148 -149 -148 -194 0 -39 6 -52 40 -91 43
-49 93 -72 133 -62 13 4 93 76 177 160 l153 154 -6 43 c-5 35 -15 52 -56 90
-45 44 -54 48 -98 48 l-48 0 -147 -148z"/>
<path d="M3280 10649 c-155 -20 -319 -71 -434 -135 -46 -25 -61 -39 -30 -27
15 6 52 -33 46 -50 -1 -4 15 0 35 9 145 61 243 88 388 105 109 13 125 20 125
55 0 22 -34 55 -55 53 -5 -1 -39 -5 -75 -10z"/>
<path d="M2585 10030 c-93 -15 -223 -58 -303 -101 -228 -121 -383 -318 -449
-568 -22 -83 -26 -118 -26 -251 -1 -132 2 -164 20 -212 57 -161 160 -261 330
-321 197 -71 465 -59 765 33 l105 32 83 347 c46 190 85 352 88 359 3 9 -67 12
-330 12 l-335 0 -27 -122 c-15 -68 -30 -131 -32 -140 -5 -17 6 -18 136 -18
l140 0 -5 -22 c-3 -13 -18 -75 -33 -138 l-28 -115 -86 -3 c-290 -10 -424 118
-404 386 8 112 26 178 77 281 114 230 347 340 604 286 92 -19 174 -61 257
-129 37 -31 76 -56 87 -56 16 0 24 23 59 168 37 150 39 168 25 179 -33 26
-171 76 -258 95 -104 22 -367 32 -460 18z"/>
<path d="M4315 10034 c-218 -31 -359 -89 -458 -188 -82 -82 -123 -193 -114
-313 7 -93 36 -157 97 -214 67 -63 164 -108 365 -169 192 -58 260 -90 282
-134 18 -35 13 -92 -12 -129 -39 -60 -164 -92 -325 -84 -171 10 -297 52 -426
142 -36 25 -73 45 -82 45 -14 0 -24 -31 -54 -172 -29 -132 -35 -174 -25 -180
24 -16 195 -67 282 -84 129 -26 437 -26 555 -1 236 51 389 157 451 314 18 46
23 78 23 158 0 89 -2 106 -26 151 -56 107 -167 171 -428 250 -245 73 -300 107
-300 183 0 110 132 170 345 157 55 -3 127 -13 160 -21 72 -19 216 -88 240
-116 10 -10 28 -19 41 -19 20 0 24 8 39 78 10 42 25 115 36 162 17 80 17 86 1
98 -22 17 -126 47 -232 67 -81 16 -370 28 -435 19z"/>
<path d="M1442 9898 c-33 -33 0 -58 112 -87 86 -21 116 -16 116 19 0 24 -26
38 -115 61 -83 22 -97 23 -113 7z"/>
<path d="M5260 9886 c-91 -26 -100 -32 -100 -55 0 -41 25 -45 120 -20 101 26
128 45 110 78 -13 26 -33 25 -130 -3z"/>
<path d="M1615 8905 c-5 -2 -42 -13 -81 -24 -70 -20 -89 -36 -78 -65 9 -24 34
-27 88 -12 28 8 70 19 93 25 45 12 64 41 43 66 -11 14 -41 18 -65 10z"/>
<path d="M5192 8898 c-33 -33 1 -61 110 -89 94 -23 118 -18 118 22 0 23 -16
32 -113 58 -90 24 -99 25 -115 9z"/>
<path d="M4600 8184 c-60 -56 -73 -99 -45 -150 10 -18 77 -92 150 -163 144
-141 173 -158 232 -128 52 27 103 93 103 133 0 54 -18 79 -163 222 -134 131
-135 132 -181 132 -42 0 -52 -5 -96 -46z"/>
<path d="M2095 8181 c-16 -10 -87 -77 -156 -147 -88 -89 -129 -138 -133 -160
-17 -76 71 -174 156 -174 28 0 50 18 185 153 149 149 153 154 153 195 0 51
-20 85 -74 123 -46 34 -88 37 -131 10z"/>
<path d="M2922 7608 c-16 -21 -54 -166 -50 -196 3 -31 37 -42 57 -18 16 19 51
144 51 182 0 40 -35 59 -58 32z"/>
<path d="M3873 7573 c-8 -20 31 -179 49 -200 19 -24 53 -12 56 21 3 28 -23
144 -40 179 -11 22 -57 22 -65 0z"/>
<path d="M7343 6355 c-86 -19 -223 -85 -312 -152 -115 -85 -386 -362 -454
-464 -178 -268 -184 -524 -16 -684 32 -31 84 -68 116 -83 53 -25 68 -27 168
-26 84 1 124 6 170 22 l60 21 35 -24 c70 -48 108 -58 201 -52 l86 5 92 -92 93
-93 -85 -122 c-353 -503 -537 -1074 -537 -1672 0 -822 363 -1628 974 -2162
717 -626 1692 -866 2595 -637 1047 264 1833 1045 2102 2087 139 539 113 1120
-72 1648 -271 774 -828 1376 -1576 1701 -131 57 -400 147 -522 174 -50 11
-145 29 -212 40 -67 11 -124 21 -125 23 -2 2 19 66 47 142 l50 139 -23 18
c-57 43 -121 53 -358 53 -237 0 -301 -10 -358 -53 l-23 -18 50 -138 c28 -77
48 -142 46 -146 -3 -4 -26 -10 -52 -13 -110 -13 -261 -38 -337 -56 -332 -79
-773 -287 -1043 -491 -37 -28 -71 -50 -77 -50 -6 0 -53 42 -105 94 l-93 93 11
39 c22 78 10 154 -34 219 l-26 37 25 72 c72 209 48 373 -73 494 -107 108 -243
143 -408 107z m218 -221 c15 -7 41 -31 56 -51 26 -34 28 -43 28 -127 0 -71 -5
-101 -21 -137 -20 -42 -26 -47 -65 -53 -80 -13 -132 -53 -327 -250 -160 -162
-191 -199 -205 -240 -9 -27 -17 -57 -17 -66 0 -21 -28 -34 -104 -50 -84 -17
-139 -6 -188 38 -71 64 -85 136 -49 250 40 129 81 184 295 398 159 160 216
209 271 240 126 70 250 88 326 48z m2507 -804 c125 -14 283 -44 397 -76 50
-14 101 -28 115 -31 42 -8 241 -88 339 -138 752 -377 1244 -1107 1322 -1960
67 -742 -268 -1551 -842 -2027 -368 -305 -840 -507 -1301 -557 -138 -15 -404
-14 -538 3 -771 97 -1439 541 -1818 1211 -140 248 -242 549 -289 855 -24 159
-24 500 1 659 108 701 478 1290 1046 1666 189 125 359 209 560 277 71 24 252
75 295 82 93 16 171 28 230 35 102 12 371 13 483 1z"/>
<path d="M10047 5076 c-24 -61 -114 -777 -217 -1706 -95 -869 -97 -890 -90
-895 4 -3 33 -7 64 -11 47 -6 56 -4 56 9 0 9 20 238 45 509 99 1096 143 1649
152 1921 6 174 4 209 -10 173z"/>
<path d="M9267 4943 c-12 -11 -8 -51 13 -125 11 -39 18 -74 15 -76 -2 -2 -37
-15 -77 -29 -98 -33 -261 -111 -347 -167 -65 -42 -91 -66 -58 -53 13 5 43 -30
39 -45 -1 -4 53 21 121 56 265 136 434 179 820 212 58 5 70 9 79 29 7 16 7 29
-2 45 -12 23 -14 23 -149 17 -119 -5 -238 -21 -321 -42 -24 -6 -26 -3 -44 67
-26 99 -35 118 -61 118 -12 0 -25 -3 -28 -7z"/>
<path d="M10302 4903 c-23 -59 -43 -144 -40 -170 2 -24 8 -28 33 -28 28 0 30
3 52 80 30 102 28 139 -8 143 -21 2 -28 -3 -37 -25z"/>
<path d="M8304 4566 c-47 -21 -104 -93 -104 -133 0 -53 19 -79 163 -220 134
-132 135 -133 181 -133 42 0 52 5 96 46 55 51 70 95 51 143 -16 37 -268 287
-304 300 -36 14 -45 13 -83 -3z"/>
<path d="M9605 4529 c-160 -21 -329 -75 -485 -155 -80 -41 -156 -92 -118 -78
19 6 56 -26 50 -44 -2 -6 36 8 85 32 181 90 363 139 576 156 95 8 125 14 135
27 15 20 15 29 2 54 -9 17 -21 19 -93 18 -45 -1 -113 -6 -152 -10z"/>
<path d="M11048 4342 c-147 -148 -148 -149 -148 -194 0 -39 6 -52 40 -91 43
-49 93 -72 133 -62 13 4 93 76 177 160 l153 154 -6 43 c-5 35 -15 52 -56 90
-45 44 -54 48 -98 48 l-48 0 -147 -148z"/>
<path d="M9680 4249 c-155 -20 -319 -71 -434 -135 -46 -25 -61 -39 -30 -27 15
6 52 -33 46 -50 -1 -4 15 0 35 9 145 61 243 88 388 105 109 13 125 20 125 55
0 22 -34 55 -55 53 -5 -1 -39 -5 -75 -10z"/>
<path d="M8985 3630 c-93 -15 -223 -58 -303 -101 -228 -121 -383 -318 -449
-568 -22 -83 -26 -118 -26 -251 -1 -132 2 -164 20 -212 57 -161 160 -261 330
-321 197 -71 465 -59 765 33 l105 32 83 347 c46 190 85 352 88 359 3 9 -67 12
-330 12 l-335 0 -27 -122 c-15 -68 -30 -131 -32 -140 -5 -17 6 -18 136 -18
l140 0 -5 -22 c-3 -13 -18 -75 -33 -138 l-28 -115 -86 -3 c-290 -10 -424 118
-404 386 8 112 26 178 77 281 114 230 347 340 604 286 92 -19 174 -61 257
-129 37 -31 76 -56 87 -56 16 0 24 23 59 168 37 150 39 168 25 179 -33 26
-171 76 -258 95 -104 22 -367 32 -460 18z"/>
<path d="M10715 3634 c-218 -31 -359 -89 -458 -188 -82 -82 -123 -193 -114
-313 7 -93 36 -157 97 -214 67 -63 164 -108 365 -169 192 -58 260 -90 282
-134 18 -35 13 -92 -12 -129 -39 -60 -164 -92 -325 -84 -171 10 -297 52 -426
142 -36 25 -73 45 -82 45 -14 0 -24 -31 -54 -172 -29 -132 -35 -174 -25 -180
24 -16 195 -67 282 -84 129 -26 437 -26 555 -1 236 51 389 157 451 314 18 46
23 78 23 158 0 89 -2 106 -26 151 -56 107 -167 171 -428 250 -245 73 -300 107
-300 183 0 110 132 170 345 157 55 -3 127 -13 160 -21 72 -19 216 -88 240
-116 10 -10 28 -19 41 -19 20 0 24 8 39 78 10 42 25 115 36 162 17 80 17 86 1
98 -22 17 -126 47 -232 67 -81 16 -370 28 -435 19z"/>
<path d="M7842 3498 c-33 -33 0 -58 112 -87 86 -21 116 -16 116 19 0 24 -26
38 -115 61 -83 22 -97 23 -113 7z"/>
<path d="M11660 3486 c-91 -26 -100 -32 -100 -55 0 -41 25 -45 120 -20 101 26
128 45 110 78 -13 26 -33 25 -130 -3z"/>
<path d="M8015 2505 c-5 -2 -42 -13 -81 -24 -70 -20 -89 -36 -78 -65 9 -24 34
-27 88 -12 28 8 70 19 93 25 45 12 64 41 43 66 -11 14 -41 18 -65 10z"/>
<path d="M11592 2498 c-33 -33 1 -61 110 -89 94 -23 118 -18 118 22 0 23 -16
32 -113 58 -90 24 -99 25 -115 9z"/>
<path d="M11000 1784 c-60 -56 -73 -99 -45 -150 10 -18 77 -92 150 -163 144
-141 173 -158 232 -128 52 27 103 93 103 133 0 54 -18 79 -163 222 -134 131
-135 132 -181 132 -42 0 -52 -5 -96 -46z"/>
<path d="M8495 1781 c-16 -10 -87 -77 -156 -147 -88 -89 -129 -138 -133 -160
-17 -76 71 -174 156 -174 28 0 50 18 185 153 149 149 153 154 153 195 0 51
-20 85 -74 123 -46 34 -88 37 -131 10z"/>
<path d="M9322 1208 c-16 -21 -54 -166 -50 -196 3 -31 37 -42 57 -18 16 19 51
144 51 182 0 40 -35 59 -58 32z"/>
<path d="M10273 1173 c-8 -20 31 -179 49 -200 19 -24 53 -12 56 21 3 28 -23
144 -40 179 -11 22 -57 22 -65 0z"/>
</g>
</svg>
