<?xml version="1.0" standalone="no"?>
<!DOCTYPE svg PUBLIC "-//W3C//DTD SVG 20010904//EN"
 "http://www.w3.org/TR/2001/REC-SVG-20010904/DTD/svg10.dtd">
<svg version="1.0" xmlns="http://www.w3.org/2000/svg"
 width="3980.000000pt" height="720.000000pt" viewBox="0 0 3980.000000 720.000000"
 preserveAspectRatio="xMidYMid meet">
<g transform="translate(0.000000,640.000000) scale(0.100000,-0.100000)"
fill="#fa0" stroke="none">
<path d="M900 6347 c-172 -52 -281 -130 -511 -364 -246 -248 -324 -380 -353
-594 -23 -163 79 -346 232 -417 82 -38 216 -43 328 -13 l80 22 58 -35 c69 -42
130 -53 200 -37 l50 12 93 -93 c51 -51 93 -96 93 -100 0 -4 -28 -47 -63 -95
-287 -400 -471 -868 -533 -1358 -21 -172 -22 -497 0 -666 85 -666 370 -1255
830 -1715 435 -434 1007 -719 1636 -815 119 -19 189 -23 390 -23 148 -1 283 4
340 12 566 77 1045 277 1480 620 127 100 367 343 463 470 120 157 221 320 308
497 100 205 161 368 214 580 136 539 116 1071 -60 1601 -207 623 -594 1135
-1125 1489 -377 251 -769 400 -1252 476 l-77 12 30 81 c17 44 39 108 51 140
l21 60 -26 20 c-60 48 -200 68 -417 61 -80 -3 -163 -10 -185 -16 -22 -6 -49
-13 -61 -16 -11 -2 -33 -15 -49 -27 l-28 -22 21 -60 c12 -32 34 -96 51 -141
l30 -81 -72 -12 c-223 -35 -269 -43 -342 -61 -192 -48 -486 -164 -692 -275
-106 -56 -336 -206 -381 -247 l-23 -21 -94 94 -94 93 6 83 c6 87 -6 136 -48
195 -19 27 -19 27 1 71 55 125 63 278 20 391 -30 80 -112 167 -198 209 -59 29
-76 33 -166 35 -82 3 -115 -1 -176 -20z m243 -211 c110 -47 137 -173 70 -328
-14 -32 -21 -38 -47 -38 -71 0 -124 -41 -332 -251 -200 -202 -209 -215 -228
-300 -8 -36 -47 -51 -146 -56 -77 -4 -88 -3 -120 19 -98 67 -112 182 -40 337
48 102 108 176 276 342 189 185 243 225 369 270 60 22 153 24 198 5z m2503
-806 c49 -6 105 -13 124 -15 132 -12 532 -124 625 -173 16 -9 32 -17 35 -17 8
-2 163 -80 203 -103 20 -12 54 -32 75 -43 20 -12 53 -34 73 -50 20 -16 40 -29
45 -29 4 0 29 -18 55 -40 26 -22 51 -40 56 -40 14 0 239 -217 315 -305 69 -78
130 -156 153 -195 5 -9 35 -55 65 -101 30 -47 64 -102 75 -124 11 -22 22 -42
25 -45 5 -5 33 -60 35 -70 0 -3 6 -14 12 -26 33 -58 116 -292 148 -415 9 -35
20 -80 25 -99 5 -19 12 -53 15 -75 3 -22 10 -62 15 -90 22 -120 31 -422 16
-565 -18 -170 -65 -388 -115 -536 -30 -90 -106 -272 -137 -329 -15 -27 -39
-72 -53 -100 -14 -27 -29 -51 -33 -53 -5 -2 -8 -9 -8 -15 0 -6 -6 -18 -14 -26
-8 -9 -21 -27 -28 -41 -72 -137 -381 -470 -542 -585 -15 -11 -47 -33 -70 -50
-23 -16 -50 -35 -61 -42 -11 -7 -53 -33 -94 -58 -60 -36 -250 -135 -271 -140
-3 -1 -27 -12 -55 -24 -27 -13 -57 -24 -65 -26 -8 -2 -42 -14 -75 -26 -75 -27
-267 -78 -319 -85 -21 -2 -42 -6 -45 -9 -4 -2 -34 -6 -66 -10 -33 -4 -89 -11
-125 -16 -88 -12 -351 -11 -447 1 -43 6 -96 12 -117 15 -252 31 -600 151 -848
294 -21 11 -55 31 -75 42 -21 12 -54 34 -74 50 -20 16 -40 29 -44 29 -9 0 -89
62 -189 147 -83 71 -277 271 -312 323 -13 19 -53 76 -89 125 -70 98 -70 97
-143 235 -82 154 -195 444 -216 556 -2 11 -8 37 -14 59 -5 22 -15 72 -21 110
-6 39 -15 99 -21 135 -26 161 -24 357 5 596 16 131 52 281 111 459 49 149 124
314 199 439 19 32 35 62 35 67 0 5 4 9 8 9 5 0 14 10 21 23 28 52 42 73 97
144 126 160 283 323 390 403 92 70 211 154 238 170 158 91 226 128 226 124 0
-2 10 2 23 10 28 18 227 99 245 99 6 0 12 4 12 9 0 4 3 7 8 6 4 -1 34 6 67 16
103 31 195 54 195 49 0 -3 7 0 15 7 8 7 15 10 15 7 0 -3 17 -1 38 4 22 4 65
11 98 15 32 4 84 10 114 13 95 12 344 12 436 1z"/>
<path d="M3645 5078 c-6 -18 -24 -116 -30 -163 -3 -22 -10 -69 -16 -105 -14
-94 -56 -422 -74 -585 -8 -77 -20 -171 -25 -210 -5 -38 -14 -113 -20 -165 -5
-52 -14 -135 -20 -185 -5 -49 -12 -110 -15 -135 -2 -25 -18 -169 -35 -320 -48
-424 -79 -734 -74 -739 2 -3 31 -7 63 -9 l59 -4 6 53 c7 62 42 449 57 619 5
63 16 189 24 280 8 91 17 190 20 220 3 30 9 105 14 165 6 61 13 142 16 180 3
39 12 156 20 260 31 386 36 454 42 653 5 178 2 232 -12 190z"/>
<path d="M2866 4944 c-9 -8 -16 -18 -16 -22 0 -6 21 -86 41 -161 3 -9 -30 -27
-101 -56 -58 -23 -123 -49 -145 -59 -22 -9 -42 -17 -45 -18 -3 0 -23 -12 -45
-27 -22 -15 -52 -33 -67 -40 -34 -17 -99 -74 -77 -68 15 5 46 -29 41 -45 -2
-8 27 0 43 12 52 38 242 122 366 163 51 17 210 57 249 63 89 12 215 24 271 24
51 0 70 4 82 18 22 24 21 55 -2 76 -17 15 -32 16 -157 6 -131 -10 -279 -31
-316 -45 -13 -5 -17 2 -23 37 -8 53 -33 128 -47 145 -14 17 -33 16 -52 -3z" fill="#fff"/>
<path d="M3912 4928 c-9 -13 -15 -30 -45 -128 -15 -51 -10 -88 16 -104 26 -17
46 11 69 95 28 104 29 117 4 134 -25 18 -31 18 -44 3z" fill="#fff"/>
<path d="M1888 4564 c-15 -8 -41 -31 -58 -52 -24 -30 -30 -46 -30 -85 l0 -49
138 -140 c75 -77 145 -144 155 -150 55 -29 113 -12 166 49 35 39 41 53 41 90
0 44 -2 47 -137 185 -76 77 -150 146 -165 154 -33 17 -74 16 -110 -2z" fill="#fff"/>
<path d="M3238 4534 c-51 -6 -106 -15 -123 -18 -101 -23 -127 -30 -195 -53
-99 -33 -191 -76 -267 -125 -62 -40 -77 -53 -49 -42 17 6 54 -27 49 -43 -3 -7
4 -9 16 -6 12 3 21 9 21 14 0 5 5 9 10 9 6 0 39 13 74 30 103 48 273 102 366
116 19 3 53 9 76 13 22 4 76 9 120 10 49 1 88 8 102 17 23 15 29 48 13 73 -12
18 -88 20 -213 5z" fill="#fff"/>
<path d="M4805 4486 c-16 -8 -92 -76 -167 -153 -133 -135 -138 -141 -138 -181
0 -64 31 -112 94 -144 68 -35 85 -26 250 139 141 140 149 150 153 193 4 41 1
49 -32 88 -34 39 -90 73 -119 72 -6 -1 -24 -7 -41 -14z" fill="#fff"/>
<path d="M3285 4253 c-113 -10 -285 -59 -391 -112 -63 -32 -115 -67 -81 -55
13 5 24 -1 35 -17 9 -13 16 -27 14 -31 -1 -4 22 2 51 14 131 53 309 97 392 98
66 0 99 18 103 53 6 53 -10 60 -123 50z" fill="#fff"/>
<path d="M1442 3498 c-21 -21 -13 -47 18 -63 17 -9 30 -13 30 -10 0 3 8 1 18
-4 9 -5 31 -12 47 -15 17 -3 42 -8 58 -12 31 -7 57 9 57 37 0 22 -55 50 -133
68 -60 14 -80 14 -95 -1z" fill="#fff"/>
<path d="M5256 3490 c-76 -21 -96 -34 -96 -60 0 -33 26 -44 78 -32 145 32 180
52 156 90 -15 23 -56 24 -138 2z" fill="#fff"/>
<path d="M1555 2492 c-73 -20 -100 -35 -103 -58 -2 -12 4 -27 13 -34 14 -11
31 -10 113 12 87 22 98 27 107 52 16 47 -27 57 -130 28z" fill="#fff"/>
<path d="M5184 2496 c-15 -38 14 -63 102 -86 92 -24 111 -24 128 3 18 28 -5
50 -75 70 -104 29 -148 33 -155 13z" fill="#fff"/>
<path d="M4656 1829 c-60 -16 -116 -91 -116 -155 0 -33 11 -48 138 -176 75
-77 149 -146 164 -154 55 -29 116 -9 168 54 24 30 30 46 30 85 l0 49 -127 130
c-172 175 -188 185 -257 167z" fill="#fff"/>
<path d="M1967 1663 c-191 -189 -202 -219 -113 -309 49 -48 59 -54 97 -54 41
0 47 4 196 153 85 83 156 162 160 175 9 39 -7 76 -58 125 -44 42 -53 47 -96
47 -46 0 -47 0 -186 -137z" fill="#fff"/>
<path d="M2916 1198 c-20 -31 -48 -151 -44 -185 2 -22 9 -29 30 -31 32 -4 39
8 63 98 28 107 28 118 6 129 -29 16 -39 14 -55 -11z" fill="#fff"/>
<path d="M3877 1179 c-13 -18 -12 -29 5 -92 32 -122 35 -127 63 -127 47 0 53
37 20 130 -8 23 -15 50 -15 60 0 18 -30 50 -48 50 -6 0 -17 -9 -25 -21z" fill="#fff"/>
</g>
<text x="680" y="520" font-family="Sans-serif" font-size="560" fill="#fff">Golden</text>
<text x="2500" y="520" font-family="Sans-serif" font-size="560" fill="#fa0">Split</text>
</svg>
